<svg xmlns="http://www.w3.org/2000/svg" width="420" height="88" viewBox="0 0 420 88" role="img" aria-label="NeetCode submissions: 295 total">
  <style>text { font: 12px -apple-system, BlinkMacSystemFont, "Segoe UI", sans-serif; fill: #8b949e; }</style>
  <text x="0" y="14">NeetCode submissions · last 26 weeks</text>
  <text x="420" y="14" text-anchor="end" font-weight="600" fill="#2ea043">295 total</text>
  <rect x="0.0" y="74.0" width="13.3" height="0.0" rx="2" fill="#2ea043"><title>0 submissions</title></rect>
  <rect x="16.3" y="74.0" width="13.3" height="0.0" rx="2" fill="#2ea043"><title>0 submissions</title></rect>
  <rect x="32.5" y="74.0" width="13.3" height="0.0" rx="2" fill="#2ea043"><title>0 submissions</title></rect>
  <rect x="48.8" y="74.0" width="13.3" height="0.0" rx="2" fill="#2ea043"><title>0 submissions</title></rect>
  <rect x="65.1" y="74.0" width="13.3" height="0.0" rx="2" fill="#2ea043"><title>0 submissions</title></rect>
  <rect x="81.3" y="74.0" width="13.3" height="0.0" rx="2" fill="#2ea043"><title>0 submissions</title></rect>
  <rect x="97.6" y="74.0" width="13.3" height="0.0" rx="2" fill="#2ea043"><title>0 submissions</title></rect>
  <rect x="113.9" y="74.0" width="13.3" height="0.0" rx="2" fill="#2ea043"><title>0 submissions</title></rect>
  <rect x="130.2" y="74.0" width="13.3" height="0.0" rx="2" fill="#2ea043"><title>0 submissions</title></rect>
  <rect x="146.4" y="74.0" width="13.3" height="0.0" rx="2" fill="#2ea043"><title>0 submissions</title></rect>
  <rect x="162.7" y="74.0" width="13.3" height="0.0" rx="2" fill="#2ea043"><title>0 submissions</title></rect>
  <rect x="179.0" y="74.0" width="13.3" height="0.0" rx="2" fill="#2ea043"><title>0 submissions</title></rect>
  <rect x="195.2" y="74.0" width="13.3" height="0.0" rx="2" fill="#2ea043"><title>0 submissions</title></rect>
  <rect x="211.5" y="61.0" width="13.3" height="13.0" rx="2" fill="#2ea043"><title>26 submissions</title></rect>
  <rect x="227.8" y="28.0" width="13.3" height="46.0" rx="2" fill="#2ea043"><title>92 submissions</title></rect>
  <rect x="244.0" y="67.5" width="13.3" height="6.5" rx="2" fill="#2ea043"><title>13 submissions</title></rect>
  <rect x="260.3" y="74.0" width="13.3" height="0.0" rx="2" fill="#2ea043"><title>0 submissions</title></rect>
  <rect x="276.6" y="74.0" width="13.3" height="0.0" rx="2" fill="#2ea043"><title>0 submissions</title></rect>
  <rect x="292.8" y="69.5" width="13.3" height="4.5" rx="2" fill="#2ea043"><title>9 submissions</title></rect>
  <rect x="309.1" y="63.0" width="13.3" height="11.0" rx="2" fill="#2ea043"><title>22 submissions</title></rect>
  <rect x="325.4" y="59.5" width="13.3" height="14.5" rx="2" fill="#2ea043"><title>29 submissions</title></rect>
  <rect x="341.7" y="57.5" width="13.3" height="16.5" rx="2" fill="#2ea043"><title>33 submissions</title></rect>
  <rect x="357.9" y="60.0" width="13.3" height="14.0" rx="2" fill="#2ea043"><title>28 submissions</title></rect>
  <rect x="374.2" y="68.5" width="13.3" height="5.5" rx="2" fill="#2ea043"><title>11 submissions</title></rect>
  <rect x="390.5" y="69.5" width="13.3" height="4.5" rx="2" fill="#2ea043"><title>9 submissions</title></rect>
  <rect x="406.7" y="62.5" width="13.3" height="11.5" rx="2" fill="#2ea043"><title>23 submissions</title></rect>
  <line x1="0" y1="74.5" x2="420" y2="74.5" stroke="#8b949e" stroke-opacity="0.35"/>
</svg>
