<svg xmlns="http://www.w3.org/2000/svg" width="420" height="88" viewBox="0 0 420 88" role="img" aria-label="NeetCode submissions: 294 total">
  <style>text { font: 12px -apple-system, BlinkMacSystemFont, "Segoe UI", sans-serif; fill: #8b949e; }</style>
  <text x="0" y="14">NeetCode submissions · last 26 weeks</text>
  <text x="420" y="14" text-anchor="end" font-weight="600" fill="#2ea043">294 total</text>
  <rect x="0.0" y="74.0" width="13.3" height="0.0" rx="2" fill="#2ea043"><title>0 submissions</title></rect>
  <rect x="16.3" y="74.0" width="13.3" height="0.0" rx="2" fill="#2ea043"><title>0 submissions</title></rect>
  <rect x="32.5" y="74.0" width="13.3" height="0.0" rx="2" fill="#2ea043"><title>0 submissions</title></rect>
  <rect x="48.8" y="74.0" width="13.3" height="0.0" rx="2" fill="#2ea043"><title>0 submissions</title></rect>
  <rect x="65.1" y="74.0" width="13.3" height="0.0" rx="2" fill="#2ea043"><title>0 submissions</title></rect>
  <rect x="81.3" y="74.0" width="13.3" height="0.0" rx="2" fill="#2ea043"><title>0 submissions</title></rect>
  <rect x="97.6" y="74.0" width="13.3" height="0.0" rx="2" fill="#2ea043"><title>0 submissions</title></rect>
  <rect x="113.9" y="74.0" width="13.3" height="0.0" rx="2" fill="#2ea043"><title>0 submissions</title></rect>
  <rect x="130.2" y="74.0" width="13.3" height="0.0" rx="2" fill="#2ea043"><title>0 submissions</title></rect>
  <rect x="146.4" y="74.0" width="13.3" height="0.0" rx="2" fill="#2ea043"><title>0 submissions</title></rect>
  <rect x="162.7" y="74.0" width="13.3" height="0.0" rx="2" fill="#2ea043"><title>0 submissions</title></rect>
  <rect x="179.0" y="74.0" width="13.3" height="0.0" rx="2" fill="#2ea043"><title>0 submissions</title></rect>
  <rect x="195.2" y="74.0" width="13.3" height="0.0" rx="2" fill="#2ea043"><title>0 submissions</title></rect>
  <rect x="211.5" y="58.1" width="13.3" height="15.9" rx="2" fill="#2ea043"><title>26 submissions</title></rect>
  <rect x="227.8" y="28.0" width="13.3" height="46.0" rx="2" fill="#2ea043"><title>75 submissions</title></rect>
  <rect x="244.0" y="55.6" width="13.3" height="18.4" rx="2" fill="#2ea043"><title>30 submissions</title></rect>
  <rect x="260.3" y="74.0" width="13.3" height="0.0" rx="2" fill="#2ea043"><title>0 submissions</title></rect>
  <rect x="276.6" y="74.0" width="13.3" height="0.0" rx="2" fill="#2ea043"><title>0 submissions</title></rect>
  <rect x="292.8" y="68.5" width="13.3" height="5.5" rx="2" fill="#2ea043"><title>9 submissions</title></rect>
  <rect x="309.1" y="65.4" width="13.3" height="8.6" rx="2" fill="#2ea043"><title>14 submissions</title></rect>
  <rect x="325.4" y="55.0" width="13.3" height="19.0" rx="2" fill="#2ea043"><title>31 submissions</title></rect>
  <rect x="341.7" y="56.2" width="13.3" height="17.8" rx="2" fill="#2ea043"><title>29 submissions</title></rect>
  <rect x="357.9" y="56.2" width="13.3" height="17.8" rx="2" fill="#2ea043"><title>29 submissions</title></rect>
  <rect x="374.2" y="62.3" width="13.3" height="11.7" rx="2" fill="#2ea043"><title>19 submissions</title></rect>
  <rect x="390.5" y="70.3" width="13.3" height="3.7" rx="2" fill="#2ea043"><title>6 submissions</title></rect>
  <rect x="406.7" y="58.1" width="13.3" height="15.9" rx="2" fill="#2ea043"><title>26 submissions</title></rect>
  <line x1="0" y1="74.5" x2="420" y2="74.5" stroke="#8b949e" stroke-opacity="0.35"/>
</svg>
